<svg width="14" height="11" viewBox="0 0 14 11" fill="none" xmlns="http://www.w3.org/2000/svg">
<path d="M13.5 0H0.5C0.223437 0 0 0.223437 0 0.5V10.5C0 10.7766 0.223437 11 0.5 11H13.5C13.7766 11 14 10.7766 14 10.5V0.5C14 0.223437 13.7766 0 13.5 0ZM12.2375 1.70156L7.30781 5.5375C7.18594 5.63281 7.01562 5.63281 6.89375 5.5375L1.9625 1.70156C1.94391 1.68722 1.93028 1.66741 1.92351 1.64493C1.91674 1.62245 1.91718 1.59841 1.92476 1.57618C1.93234 1.55396 1.94668 1.53466 1.96578 1.521C1.98488 1.50734 2.00777 1.5 2.03125 1.5H12.1687C12.1922 1.5 12.2151 1.50734 12.2342 1.521C12.2533 1.53466 12.2677 1.55396 12.2752 1.57618C12.2828 1.59841 12.2833 1.62245 12.2765 1.64493C12.2697 1.66741 12.2561 1.68722 12.2375 1.70156Z" fill="white"/>
</svg>
